PathFileType	4	(X/Y/Z)	./resultDataOpenSim/trcMotMarkerGrf/sub06/qtm-01-07.trc
DataRate	CameraRate	NumFrames	NumMarkers	Units	OrigDataRate	OrigDataStartFrame	OrigNumFrames
250.000000	250.000000	15	24	m	250.000000	428	489
Frame#	Time	L.Toe.Tip			R.Toe.Tip			L.Ankle.Lat			R.Ankle.Lat			L.Ankle.Med			R.Ankle.Med			L.Heel			R.Heel			L.Knee.Lat			R.Knee.Lat			L.Knee.Med			R.Knee.Med			L.Thigh.Upper			R.Thigh.Upper			L.ASIS			R.ASIS			V.Sacral			L.Acromium			R.Acromium			C7			L.Elbow			R.Elbow			L.Wrist.Lat			R.Wrist.Lat
		X1	Y1	Z1	X2	Y2	Z2	X3	Y3	Z3	X4	Y4	Z4	X5	Y5	Z5	X6	Y6	Z6	X7	Y7	Z7	X8	Y8	Z8	X9	Y9	Z9	X10	Y10	Z10	X11	Y11	Z11	X12	Y12	Z12	X13	Y13	Z13	X14	Y14	Z14	X15	Y15	Z15	X16	Y16	Z16	X17	Y17	Z17	X18	Y18	Z18	X19	Y19	Z19	X20	Y20	Z20	X21	Y21	Z21	X22	Y22	Z22	X23	Y23	Z23	X24	Y24	Z24

428	1.708	1.6816303	0.033342339	-0.0035749781	1.0831705	0.08188524	0.14699972	1.5596004	0.06636028	-0.038193643	1.0810386	0.22401262	0.17303586	1.5530675	0.07948422	0.048653612	1.1240642	0.21034572	0.094597803	1.480418	0.039000943	-0.0014309624	1.0611212	0.26604016	0.1056174	1.624566	0.4365038	-0.047642546	1.4239987	0.39434322	0.22225305	1.5896346	0.43136953	0.067989366	1.4266933	0.37248964	0.089286439	1.4796401	0.80512792	-0.1268379	1.3791729	0.76197318	0.2109085	1.5348394	0.84433823	-0.068348397	1.5010021	0.82214534	0.17238344	1.3278229	0.90127332	0.04010334	1.4287264	1.3016153	-0.15690185	1.4221579	1.3087587	0.20662345	1.3466089	1.3429614	0.021871016	1.3454872	0.99955749	-0.19354336	1.4060694	0.98724009	0.28683615	1.4259352	0.77571519	-0.24730621	1.6306544	0.88351372	0.27590343
429	1.712	1.6816076	0.033319722	-0.0036493111	1.0991754	0.083404819	0.14822475	1.559583	0.066204166	-0.038127349	1.0944796	0.2253475	0.17320332	1.5536036	0.079680696	0.04857686	1.1376974	0.21191369	0.094886286	1.4803874	0.039101593	-0.0015547651	1.0737074	0.26679812	0.10572603	1.6267917	0.43579223	-0.048013627	1.4363622	0.39607794	0.22314256	1.5920369	0.43099654	0.067671236	1.4390104	0.37455579	0.089827921	1.4855748	0.80609886	-0.12691206	1.3821983	0.76435821	0.21075339	1.5407993	0.84538482	-0.068583789	1.5070418	0.82410887	0.17253524	1.3338597	0.90275505	0.039651149	1.4354343	1.303128	-0.15689462	1.4279	1.3102951	0.20662052	1.3528374	1.3443777	0.021609157	1.3540017	1.0003248	-0.19406288	1.4092573	0.98871408	0.28594909	1.4371085	0.77713156	-0.246522	1.6333632	0.88162386	0.27625392
430	1.716	1.6815823	0.033304472	-0.0037107056	1.1152696	0.08465814	0.14956122	1.559561	0.066064772	-0.038010778	1.1080686	0.22636244	0.17337835	1.5543461	0.079944362	0.048493971	1.1514726	0.21327859	0.095244302	1.4803547	0.039214758	-0.0016177648	1.0864053	0.26728412	0.10583817	1.6288939	0.43512483	-0.048282702	1.4486596	0.3979915	0.22395922	1.5941971	0.43071658	0.067430493	1.4514001	0.37664779	0.090314325	1.4915467	0.80704847	-0.12701589	1.3873178	0.76630917	0.21033476	1.5467242	0.8464605	-0.068817722	1.5130364	0.82612548	0.17268356	1.3399919	0.90430012	0.039217958	1.4420887	1.3047261	-0.15686957	1.433588	1.3118926	0.20662848	1.3590188	1.3458394	0.02138285	1.3625141	1.0011815	-0.19451979	1.4128501	0.99025476	0.28504042	1.4483399	0.77868681	-0.24569222	1.6359278	0.87980016	0.27662546
431	1.72	1.6815661	0.033295287	-0.0037614067	1.131431	0.085676151	0.15094414	1.5595448	0.06597818	-0.037916609	1.1216312	0.22709877	0.17353839	1.5549645	0.080221288	0.048423165	1.1653746	0.21442832	0.09563192	1.4803301	0.039338025	-0.001613945	1.0992584	0.26751965	0.10589302	1.6308969	0.43451884	-0.048449811	1.4609911	0.40006669	0.22466212	1.5961389	0.43052669	0.06725405	1.4638487	0.3787488	0.090845109	1.4975594	0.80798371	-0.12715488	1.3927402	0.76824782	0.20989258	1.5526252	0.84756258	-0.069060446	1.5190329	0.82818117	0.17282292	1.346197	0.90587961	0.03881539	1.4486964	1.3064039	-0.15682903	1.4392406	1.3135432	0.2066388	1.3651679	1.3473459	0.021178306	1.3710191	1.0021212	-0.19493185	1.4172026	0.99184812	0.28406869	1.4596234	0.7803701	-0.24482075	1.6383716	0.87804356	0.27701547
432	1.724	1.6815686	0.03329125	-0.0038034136	1.147685	0.086489626	0.15230877	1.5595417	0.065953474	-0.037887749	1.1350525	0.22757233	0.17367391	1.5553107	0.080446281	0.048377184	1.1793782	0.21534031	0.09599758	1.4803254	0.039468221	-0.0015931397	1.1122928	0.26750772	0.10585038	1.6328146	0.43398668	-0.048526601	1.4733747	0.40229654	0.22523953	1.5979103	0.43042141	0.067138325	1.47631	0.38087666	0.091414841	1.5035018	0.80891539	-0.12730192	1.3978688	0.77028626	0.20947789	1.5585295	0.84868669	-0.069323187	1.5250647	0.83027015	0.17294525	1.3524266	0.90749606	0.038425317	1.455264	1.3081526	-0.1567718	1.4448877	1.3152323	0.20664861	1.3712952	1.348895	0.020989133	1.379517	1.0031294	-0.19532023	1.4220471	0.9935084	0.2830745	1.4709566	0.78216982	-0.24391085	1.6407093	0.87635645	0.27742373
433	1.728	1.6815907	0.033290646	-0.0038381618	1.164071	0.087118614	0.15361994	1.5595518	0.065973803	-0.037919132	1.1484143	0.22781415	0.17378692	1.5554649	0.08059732	0.048353106	1.1934647	0.21599903	0.09632091	1.4803387	0.039596958	-0.0015989522	1.1254965	0.26724458	0.10573995	1.6346634	0.4335323	-0.048525047	1.4857268	0.40468283	0.22571605	1.5995525	0.43039043	0.067082768	1.4888545	0.38303525	0.091977368	1.5091945	0.80985689	-0.12742064	1.4030399	0.77233631	0.20898677	1.5644497	0.8498305	-0.069610747	1.5311304	0.83239007	0.1730374	1.3586187	0.90918273	0.038040506	1.4617979	1.3099649	-0.15669901	1.4505604	1.316941	0.20665911	1.3774078	1.3504775	0.020818744	1.3880185	1.0041888	-0.19568799	1.4268985	0.99525917	0.28211936	1.4823406	0.78407872	-0.24296918	1.6429439	0.87473808	0.27785403
434	1.732	1.6816233	0.033290005	-0.0038678328	1.1806161	0.087574986	0.15486769	1.5595636	0.066025384	-0.038007495	1.1619454	0.22787171	0.17389083	1.5555579	0.080693149	0.048340898	1.2076358	0.21640896	0.096617093	1.4803512	0.039716239	-0.0016546361	1.1388185	0.26671044	0.10564911	1.6364588	0.43315427	-0.048450082	1.4979596	0.40721856	0.22612383	1.6010605	0.43041334	0.067075795	1.5015937	0.38522106	0.092481059	1.514591	0.81081334	-0.12751435	1.4089799	0.77424807	0.20833931	1.5703439	0.85099508	-0.069911728	1.5372139	0.83453129	0.17309073	1.3646926	0.91094745	0.037679846	1.4683035	1.3118348	-0.15661664	1.4562765	1.31865	0.2066722	1.3835136	1.3520774	0.020676597	1.3965283	1.0052876	-0.1960264	1.4313947	0.99710342	0.28124559	1.4937802	0.7860926	-0.2420055	1.6450689	0.87318183	0.27831404
435	1.736	1.6816528	0.033286447	-0.0038942652	1.1973359	0.087869748	0.15606186	1.5595612	0.066107124	-0.038161717	1.1758085	0.22775464	0.17401867	1.55566	0.080753755	0.048335973	1.2219039	0.21659149	0.096911651	1.4803417	0.039829203	-0.0017567807	1.1522062	0.26587917	0.10563917	1.6381984	0.43284832	-0.048308853	1.5100441	0.40988749	0.22648166	1.6023672	0.430456	0.067096761	1.5144983	0.38745967	0.092890828	1.5198292	0.81176713	-0.12761844	1.4164321	0.77588823	0.20763187	1.5761353	0.85218385	-0.070207817	1.5432956	0.83667623	0.17310618	1.3705995	0.91272192	0.037370516	1.4747822	1.3137537	-0.15653116	1.4620361	1.3203475	0.20668908	1.3896209	1.3536847	0.020572356	1.4050329	1.0064213	-0.19633286	1.4354344	0.9990087	0.28047176	1.5052768	0.78820763	-0.24102609	1.6470721	0.87168255	0.27881231
436	1.74	1.6816688	0.033281122	-0.0039173145	1.2142398	0.088013581	0.15722571	1.5595429	0.066212858	-0.038352678	1.1900075	0.22742707	0.17421024	1.5557777	0.080796361	0.048339178	1.2362765	0.21656922	0.097222023	1.4803066	0.039951792	-0.0018490402	1.1656384	0.26475496	0.10570649	1.6398622	0.43260376	-0.048116422	1.5220127	0.41267488	0.22680056	1.60337	0.43048127	0.067128067	1.5274108	0.38979435	0.093214878	1.5250349	0.81268474	-0.12774722	1.425863	0.77719266	0.20710071	1.5818085	0.85340032	-0.070502819	1.5493538	0.8388085	0.1730894	1.3763925	0.91441754	0.037124807	1.4812289	1.3157095	-0.15643912	1.4678239	1.322035	0.20671238	1.3957291	1.3553013	0.020511852	1.4135106	1.0075895	-0.19661532	1.4391693	1.0009331	0.27978937	1.5168129	0.79042137	-0.2400276	1.6489451	0.87024418	0.27935447
437	1.744	1.6816695	0.033278451	-0.0039351881	1.2313296	0.088015204	0.15838486	1.5595247	0.066323727	-0.038505629	1.2044933	0.22686644	0.17448415	1.5558847	0.080860586	0.048348192	1.2507536	0.21635394	0.097563611	1.4802634	0.040097833	-0.0018550227	1.1791209	0.26336439	0.10581587	1.6414311	0.43240414	-0.047886978	1.5339585	0.41556791	0.22709793	1.6040397	0.43047605	0.067168753	1.5401772	0.39224976	0.093492094	1.5302057	0.81354624	-0.12788124	1.4372231	0.77819268	0.20694604	1.5874536	0.85464607	-0.070827493	1.5553838	0.84091817	0.17304345	1.382182	0.91601913	0.036940661	1.4876339	1.3176871	-0.15632515	1.4736157	1.3237243	0.20674717	1.4018313	1.35693	0.020495231	1.4219482	1.0087913	-0.19688412	1.4428537	1.0028652	0.2791629	1.5283552	0.79273275	-0.23900078	1.6506919	0.86887306	0.27993997
438	1.748	1.6816619	0.033281439	-0.0039450092	1.2486058	0.087886179	0.15955754	1.5595236	0.066428279	-0.038570961	1.2192498	0.22609693	0.17482577	1.5559584	0.080991452	0.048356156	1.2653453	0.21594695	0.097974222	1.4802328	0.040266524	-0.001764981	1.1926659	0.26172345	0.10593448	1.6428968	0.4322377	-0.047629405	1.5459616	0.41854322	0.22738803	1.6045081	0.43046436	0.06723542	1.5527274	0.39482741	0.093755426	1.5352905	0.81435735	-0.12799489	1.4498677	0.7790151	0.20721606	1.5931696	0.85592065	-0.071206334	1.5614123	0.84300093	0.17296665	1.3880372	0.91758105	0.036811602	1.4939903	1.3196753	-0.15617786	1.4793952	1.3254254	0.20680157	1.4079249	1.3585638	0.020514762	1.43035	1.0100216	-0.19714538	1.4466768	1.0048218	0.27854856	1.53988	0.7951379	-0.23794001	1.6523299	0.86756841	0.28056214
439	1.752	1.6816557	0.033288771	-0.0039444083	1.2660759	0.08764398	0.16074863	1.5595443	0.066534965	-0.038564393	1.2342384	0.22515859	0.17519247	1.5560004	0.081187977	0.048359547	1.2800893	0.21534606	0.09852219	1.4802243	0.040450157	-0.0016418391	1.2062692	0.25982985	0.10605814	1.6442575	0.43210237	-0.047352456	1.5579627	0.42156098	0.22764864	1.604998	0.43048571	0.067342308	1.56511	0.3975227	0.094011013	1.5402671	0.8151319	-0.12807303	1.4627213	0.77985229	0.20782593	1.5989646	0.8572215	-0.071632019	1.5674796	0.84505618	0.17285516	1.3939789	0.91914955	0.036726361	1.5003005	1.3216749	-0.15600123	1.4851788	1.3271376	0.20689036	1.4140124	1.36019	0.020555187	1.4387348	1.0112718	-0.1973988	1.4506533	1.0068083	0.27791935	1.5513852	0.7976288	-0.23684721	1.653879	0.86632377	0.28121101
440	1.756	1.6816584	0.033296244	-0.003934565	1.2837525	0.087306567	0.16194964	1.5595821	0.066656175	-0.03852842	1.2493235	0.22405692	0.17553617	1.5560301	0.081407249	0.048360824	1.2950152	0.21455639	0.099240148	1.4802367	0.040645425	-0.0015405052	1.2198813	0.25766075	0.10625647	1.6455147	0.43200015	-0.047067409	1.5698102	0.42458815	0.22783434	1.6056797	0.43056454	0.067487414	1.5774039	0.40034431	0.094242567	1.5451443	0.81587714	-0.12810886	1.4746233	0.78090442	0.2086283	1.6047716	0.85854105	-0.072075944	1.5736055	0.84708544	0.17270605	1.4000195	0.92072476	0.036667341	1.5065785	1.323694	-0.15580857	1.491016	1.3288495	0.20703121	1.4200931	1.3617987	0.020602433	1.4471182	1.0125345	-0.19764087	1.454582	1.0087978	0.27727043	1.562878	0.80019762	-0.23572875	1.6553516	0.86513314	0.28187598
441	1.76	1.6816711	0.033299647	-0.0039201651	1.3016554	0.086888798	0.16314515	1.5596279	0.06679302	-0.038488922	1.2643278	0.22275336	0.17583866	1.5560595	0.081615168	0.048363273	1.3100517	0.21360465	0.099996271	1.4802642	0.040850972	-0.0014661006	1.2333937	0.25516237	0.10670304	1.6466817	0.43193332	-0.046784055	1.5814722	0.42762136	0.2279438	1.6065728	0.43069654	0.067658415	1.5895942	0.40332589	0.094436319	1.5499816	0.81660197	-0.12809952	1.484798	0.7822996	0.20945591	1.6105228	0.85986689	-0.072513125	1.579778	0.84909128	0.17251774	1.4061545	0.92228672	0.036623079	1.5128463	1.3257284	-0.15561284	1.496944	1.3305418	0.20722118	1.4261626	1.363381	0.020654672	1.4555	1.0138023	-0.19787073	1.458186	1.0107463	0.27660765	1.5743737	0.80284011	-0.23458942	1.6567516	0.86399418	0.28255031
442	1.764	1.6816877	0.033296637	-0.0039055041	1.3198245	0.086409019	0.16431642	1.5596717	0.066938813	-0.038447776	1.2791834	0.22120313	0.1761197	1.5560685	0.081798815	0.048369329	1.3250188	0.21253441	0.10050678	1.4802992	0.041060309	-0.0013964417	1.2466747	0.25226234	0.10761706	1.6477802	0.43190351	-0.046508771	1.593064	0.43066567	0.22803206	1.6075551	0.43085545	0.067841487	1.6016854	0.40650652	0.094592327	1.5549494	0.81732885	-0.12805014	1.4933344	0.78401811	0.21013385	1.6161964	0.86118821	-0.072935376	1.5859778	0.8510757	0.17228783	1.4123353	0.92382444	0.036603436	1.5191278	1.327757	-0.15542211	1.5029411	1.3321888	0.20742049	1.4322192	1.364924	0.020720284	1.4638694	1.0150647	-0.1980888	1.46146	1.0126319	0.27595106	1.5859061	0.80555237	-0.23342703	1.6580813	0.86290773	0.28323565
